{
	"asset":{
		"generator":"Khronos glTF Blender I/O v4.0.44",
		"version":"2.0"
	},
	"scene":0,
	"scenes":[
		{
			"name":"Scene",
			"nodes":[
				0
			]
		}
	],
	"nodes":[
		{
			"mesh":0,
			"name":"61-6441.4057_Rendering_008Druckfeder_2__00494734_oa_4"
		}
	],
	"materials":[
		{
			"name":"material_name_metall_stahl67686A_abgenutzt_7_mtl",
			"pbrMetallicRoughness":{
				"baseColorFactor":[
					1,
					0.6452785134315491,
					0.014745241031050682,
					1
				],
				"metallicFactor":0,
				"roughnessFactor":0
			}
		},
		{
			"alphaMode":"BLEND",
			"emissiveFactor":[
				1,
				1,
				1
			],
			"emissiveTexture":{
				"index":0
			},
			"name":"material_name_kunststoff_gruen9CC289_glanz_SSS_0_mtl",
			"pbrMetallicRoughness":{
				"baseColorFactor":[
					0.6203221678733826,
					0.05987609922885895,
					0.05987609922885895,
					1
				]
			}
		},
		{
			"emissiveFactor":[
				1,
				1,
				1
			],
			"emissiveTexture":{
				"index":1
			},
			"name":"material_name_kunststoff_schwarz141414_rau_1_mtl",
			"pbrMetallicRoughness":{
				"baseColorFactor":[
					0.07666938006877899,
					0.6301510334014893,
					0.011781658977270126,
					1
				]
			}
		},
		{
			"emissiveFactor":[
				1,
				1,
				1
			],
			"emissiveTexture":{
				"index":2
			},
			"name":"material_name_kunststoff_gelbFCBE37_rau_2_mtl",
			"pbrMetallicRoughness":{
				"baseColorFactor":[
					0.03362157195806503,
					0.08201193064451218,
					0.47514966130256653,
					1
				]
			}
		},
		{
			"emissiveFactor":[
				1,
				1,
				1
			],
			"emissiveTexture":{
				"index":3
			},
			"name":"material_name_kunststoff_gelbFCBE37_rau_3_mtl",
			"pbrMetallicRoughness":{
				"baseColorFactor":[
					0.0008192736422643065,
					0.020845120772719383,
					0.6601762771606445,
					1
				]
			}
		},
		{
			"emissiveFactor":[
				1,
				1,
				1
			],
			"emissiveTexture":{
				"index":4
			},
			"name":"material_name_kunststoff_verkehrsrotB81D12_rau_5_mtl",
			"pbrMetallicRoughness":{
				"baseColorFactor":[
					0.8342917561531067,
					0.0004493357555475086,
					0.0004493357555475086,
					1
				]
			}
		},
		{
			"emissiveFactor":[
				1,
				1,
				1
			],
			"emissiveTexture":{
				"index":5
			},
			"name":"material_name_kunststoff_weissDCDCDC_rau_6_mtl",
			"pbrMetallicRoughness":{
				"baseColorFactor":[
					1,
					0.015608880668878555,
					0.013302944600582123,
					1
				]
			}
		}
	],
	"meshes":[
		{
			"name":"Mesh_15",
			"primitives":[
				{
					"attributes":{
						"POSITION":0,
						"NORMAL":1,
						"TEXCOORD_0":2
					},
					"indices":3,
					"material":0
				},
				{
					"attributes":{
						"POSITION":4,
						"NORMAL":5,
						"TEXCOORD_0":6
					},
					"indices":7,
					"material":1
				},
				{
					"attributes":{
						"POSITION":8,
						"NORMAL":9,
						"TEXCOORD_0":10
					},
					"indices":11,
					"material":2
				},
				{
					"attributes":{
						"POSITION":12,
						"NORMAL":13,
						"TEXCOORD_0":14
					},
					"indices":15,
					"material":3
				},
				{
					"attributes":{
						"POSITION":16,
						"NORMAL":17,
						"TEXCOORD_0":18
					},
					"indices":19,
					"material":4
				},
				{
					"attributes":{
						"POSITION":20,
						"NORMAL":21,
						"TEXCOORD_0":22
					},
					"indices":23,
					"material":5
				},
				{
					"attributes":{
						"POSITION":24,
						"NORMAL":25,
						"TEXCOORD_0":26
					},
					"indices":27,
					"material":5
				},
				{
					"attributes":{
						"POSITION":28,
						"NORMAL":29,
						"TEXCOORD_0":30
					},
					"indices":31,
					"material":6
				}
			]
		}
	],
	"textures":[
		{
			"sampler":0,
			"source":0
		},
		{
			"sampler":0,
			"source":1
		},
		{
			"sampler":0,
			"source":2
		},
		{
			"sampler":0,
			"source":3
		},
		{
			"sampler":0,
			"source":4
		},
		{
			"sampler":0,
			"source":5
		}
	],
	"images":[
		{
			"mimeType":"image/jpeg",
			"name":"Image_2",
			"uri":"Image_2.jpg"
		},
		{
			"mimeType":"image/jpeg",
			"name":"Image_6",
			"uri":"Image_6.jpg"
		},
		{
			"mimeType":"image/jpeg",
			"name":"Image_10",
			"uri":"Image_10.jpg"
		},
		{
			"mimeType":"image/jpeg",
			"name":"Image_14",
			"uri":"Image_14.jpg"
		},
		{
			"mimeType":"image/jpeg",
			"name":"Image_21",
			"uri":"Image_21.jpg"
		},
		{
			"mimeType":"image/jpeg",
			"name":"Image_25",
			"uri":"Image_25.jpg"
		}
	],
	"accessors":[
		{
			"bufferView":0,
			"componentType":5126,
			"count":311176,
			"max":[
				10.779808044433594,
				11.071235656738281,
				9.162853240966797
			],
			"min":[
				-4.696195602416992,
				-8.726089477539062,
				-7.5489702224731445
			],
			"type":"VEC3"
		},
		{
			"bufferView":1,
			"componentType":5126,
			"count":311176,
			"type":"VEC3"
		},
		{
			"bufferView":2,
			"componentType":5126,
			"count":311176,
			"type":"VEC2"
		},
		{
			"bufferView":3,
			"componentType":5125,
			"count":1835160,
			"type":"SCALAR"
		},
		{
			"bufferView":4,
			"componentType":5126,
			"count":6645,
			"max":[
				0.4315204620361328,
				6.866252899169922,
				21.69963836669922
			],
			"min":[
				-17.250682830810547,
				-13.854841232299805,
				5.479250431060791
			],
			"type":"VEC3"
		},
		{
			"bufferView":5,
			"componentType":5126,
			"count":6645,
			"type":"VEC3"
		},
		{
			"bufferView":6,
			"componentType":5126,
			"count":6645,
			"type":"VEC2"
		},
		{
			"bufferView":7,
			"componentType":5123,
			"count":31986,
			"type":"SCALAR"
		},
		{
			"bufferView":8,
			"componentType":5126,
			"count":17169,
			"max":[
				14.770001411437988,
				12.625282287597656,
				7.4462432861328125
			],
			"min":[
				-4.833693981170654,
				-9.152384757995605,
				-10.597044944763184
			],
			"type":"VEC3"
		},
		{
			"bufferView":9,
			"componentType":5126,
			"count":17169,
			"type":"VEC3"
		},
		{
			"bufferView":10,
			"componentType":5126,
			"count":17169,
			"type":"VEC2"
		},
		{
			"bufferView":11,
			"componentType":5123,
			"count":49608,
			"type":"SCALAR"
		},
		{
			"bufferView":12,
			"componentType":5126,
			"count":113473,
			"max":[
				12.14991569519043,
				10.07160758972168,
				26.481548309326172
			],
			"min":[
				-21.63241195678711,
				-16.399112701416016,
				-8.09548282623291
			],
			"type":"VEC3"
		},
		{
			"bufferView":13,
			"componentType":5126,
			"count":113473,
			"type":"VEC3"
		},
		{
			"bufferView":14,
			"componentType":5126,
			"count":113473,
			"type":"VEC2"
		},
		{
			"bufferView":15,
			"componentType":5125,
			"count":495240,
			"type":"SCALAR"
		},
		{
			"bufferView":16,
			"componentType":5126,
			"count":48803,
			"max":[
				8.828418731689453,
				12.342092514038086,
				15.723591804504395
			],
			"min":[
				-12.436930656433105,
				-13.779794692993164,
				-3.483030080795288
			],
			"type":"VEC3"
		},
		{
			"bufferView":17,
			"componentType":5126,
			"count":48803,
			"type":"VEC3"
		},
		{
			"bufferView":18,
			"componentType":5126,
			"count":48803,
			"type":"VEC2"
		},
		{
			"bufferView":19,
			"componentType":5123,
			"count":100164,
			"type":"SCALAR"
		},
		{
			"bufferView":20,
			"componentType":5126,
			"count":9695,
			"max":[
				16.397878646850586,
				6.790162086486816,
				4.915638446807861
			],
			"min":[
				-1.9281907081604004,
				-4.376764297485352,
				-13.454590797424316
			],
			"type":"VEC3"
		},
		{
			"bufferView":21,
			"componentType":5126,
			"count":9695,
			"type":"VEC3"
		},
		{
			"bufferView":22,
			"componentType":5126,
			"count":9695,
			"type":"VEC2"
		},
		{
			"bufferView":23,
			"componentType":5123,
			"count":22584,
			"type":"SCALAR"
		},
		{
			"bufferView":24,
			"componentType":5126,
			"count":84127,
			"max":[
				0.31151676177978516,
				8.351564407348633,
				33.902523040771484
			],
			"min":[
				-28.4698543548584,
				-20.454328536987305,
				6.070013999938965
			],
			"type":"VEC3"
		},
		{
			"bufferView":25,
			"componentType":5126,
			"count":84127,
			"type":"VEC3"
		},
		{
			"bufferView":26,
			"componentType":5126,
			"count":84127,
			"type":"VEC2"
		},
		{
			"bufferView":27,
			"componentType":5125,
			"count":372705,
			"type":"SCALAR"
		},
		{
			"bufferView":28,
			"componentType":5126,
			"count":78894,
			"max":[
				16.16085433959961,
				10.949626922607422,
				7.676987171173096
			],
			"min":[
				-4.616446018218994,
				-5.584149360656738,
				-13.650347709655762
			],
			"type":"VEC3"
		},
		{
			"bufferView":29,
			"componentType":5126,
			"count":78894,
			"type":"VEC3"
		},
		{
			"bufferView":30,
			"componentType":5126,
			"count":78894,
			"type":"VEC2"
		},
		{
			"bufferView":31,
			"componentType":5125,
			"count":298758,
			"type":"SCALAR"
		}
	],
	"bufferViews":[
		{
			"buffer":0,
			"byteLength":3734112,
			"byteOffset":0,
			"target":34962
		},
		{
			"buffer":0,
			"byteLength":3734112,
			"byteOffset":3734112,
			"target":34962
		},
		{
			"buffer":0,
			"byteLength":2489408,
			"byteOffset":7468224,
			"target":34962
		},
		{
			"buffer":0,
			"byteLength":7340640,
			"byteOffset":9957632,
			"target":34963
		},
		{
			"buffer":0,
			"byteLength":79740,
			"byteOffset":17298272,
			"target":34962
		},
		{
			"buffer":0,
			"byteLength":79740,
			"byteOffset":17378012,
			"target":34962
		},
		{
			"buffer":0,
			"byteLength":53160,
			"byteOffset":17457752,
			"target":34962
		},
		{
			"buffer":0,
			"byteLength":63972,
			"byteOffset":17510912,
			"target":34963
		},
		{
			"buffer":0,
			"byteLength":206028,
			"byteOffset":17574884,
			"target":34962
		},
		{
			"buffer":0,
			"byteLength":206028,
			"byteOffset":17780912,
			"target":34962
		},
		{
			"buffer":0,
			"byteLength":137352,
			"byteOffset":17986940,
			"target":34962
		},
		{
			"buffer":0,
			"byteLength":99216,
			"byteOffset":18124292,
			"target":34963
		},
		{
			"buffer":0,
			"byteLength":1361676,
			"byteOffset":18223508,
			"target":34962
		},
		{
			"buffer":0,
			"byteLength":1361676,
			"byteOffset":19585184,
			"target":34962
		},
		{
			"buffer":0,
			"byteLength":907784,
			"byteOffset":20946860,
			"target":34962
		},
		{
			"buffer":0,
			"byteLength":1980960,
			"byteOffset":21854644,
			"target":34963
		},
		{
			"buffer":0,
			"byteLength":585636,
			"byteOffset":23835604,
			"target":34962
		},
		{
			"buffer":0,
			"byteLength":585636,
			"byteOffset":24421240,
			"target":34962
		},
		{
			"buffer":0,
			"byteLength":390424,
			"byteOffset":25006876,
			"target":34962
		},
		{
			"buffer":0,
			"byteLength":200328,
			"byteOffset":25397300,
			"target":34963
		},
		{
			"buffer":0,
			"byteLength":116340,
			"byteOffset":25597628,
			"target":34962
		},
		{
			"buffer":0,
			"byteLength":116340,
			"byteOffset":25713968,
			"target":34962
		},
		{
			"buffer":0,
			"byteLength":77560,
			"byteOffset":25830308,
			"target":34962
		},
		{
			"buffer":0,
			"byteLength":45168,
			"byteOffset":25907868,
			"target":34963
		},
		{
			"buffer":0,
			"byteLength":1009524,
			"byteOffset":25953036,
			"target":34962
		},
		{
			"buffer":0,
			"byteLength":1009524,
			"byteOffset":26962560,
			"target":34962
		},
		{
			"buffer":0,
			"byteLength":673016,
			"byteOffset":27972084,
			"target":34962
		},
		{
			"buffer":0,
			"byteLength":1490820,
			"byteOffset":28645100,
			"target":34963
		},
		{
			"buffer":0,
			"byteLength":946728,
			"byteOffset":30135920,
			"target":34962
		},
		{
			"buffer":0,
			"byteLength":946728,
			"byteOffset":31082648,
			"target":34962
		},
		{
			"buffer":0,
			"byteLength":631152,
			"byteOffset":32029376,
			"target":34962
		},
		{
			"buffer":0,
			"byteLength":1195032,
			"byteOffset":32660528,
			"target":34963
		}
	],
	"samplers":[
		{
			"magFilter":9729,
			"minFilter":9987
		}
	],
	"buffers":[
		{
			"byteLength":33855560,
			"uri":"61-serie-edit.bin"
		}
	]
}
