{
	"asset":{
		"generator":"Khronos glTF Blender I/O v4.0.44",
		"version":"2.0"
	},
	"scene":0,
	"scenes":[
		{
			"name":"Scene",
			"nodes":[
				0
			]
		}
	],
	"nodes":[
		{
			"mesh":0,
			"name":"61-6441.4057_Rendering_008Druckfeder_2__00494734_oa_4"
		}
	],
	"materials":[
		{
			"name":"material_name_metall_stahl67686A_abgenutzt_7_mtl",
			"pbrMetallicRoughness":{
				"baseColorFactor":[
					1,
					0.6452785134315491,
					0.014745241031050682,
					1
				],
				"metallicFactor":0,
				"roughnessFactor":0
			}
		},
		{
			"alphaMode":"BLEND",
			"emissiveFactor":[
				1,
				1,
				1
			],
			"emissiveTexture":{
				"index":0
			},
			"name":"material_name_kunststoff_gruen9CC289_glanz_SSS_0_mtl",
			"pbrMetallicRoughness":{
				"baseColorFactor":[
					0.6203221678733826,
					0.05987609922885895,
					0.05987609922885895,
					1
				]
			}
		},
		{
			"emissiveFactor":[
				1,
				1,
				1
			],
			"emissiveTexture":{
				"index":1
			},
			"name":"material_name_kunststoff_schwarz141414_rau_1_mtl",
			"pbrMetallicRoughness":{
				"baseColorFactor":[
					0.07666938006877899,
					0.6301510334014893,
					0.011781658977270126,
					1
				]
			}
		},
		{
			"emissiveFactor":[
				1,
				1,
				1
			],
			"emissiveTexture":{
				"index":2
			},
			"name":"material_name_kunststoff_gelbFCBE37_rau_2_mtl",
			"pbrMetallicRoughness":{
				"baseColorFactor":[
					0.03362157195806503,
					0.08201193064451218,
					0.47514966130256653,
					1
				]
			}
		},
		{
			"emissiveFactor":[
				1,
				1,
				1
			],
			"emissiveTexture":{
				"index":3
			},
			"name":"material_name_kunststoff_gelbFCBE37_rau_3_mtl",
			"pbrMetallicRoughness":{
				"baseColorFactor":[
					0.0008192736422643065,
					0.020845120772719383,
					0.6601762771606445,
					1
				]
			}
		},
		{
			"emissiveFactor":[
				1,
				1,
				1
			],
			"emissiveTexture":{
				"index":4
			},
			"name":"material_name_kunststoff_verkehrsrotB81D12_rau_5_mtl",
			"pbrMetallicRoughness":{
				"baseColorFactor":[
					0.8342917561531067,
					0.0004493357555475086,
					0.0004493357555475086,
					1
				]
			}
		},
		{
			"emissiveFactor":[
				1,
				1,
				1
			],
			"emissiveTexture":{
				"index":5
			},
			"name":"material_name_kunststoff_weissDCDCDC_rau_6_mtl",
			"pbrMetallicRoughness":{
				"baseColorFactor":[
					1,
					0.015608880668878555,
					0.013302944600582123,
					1
				]
			}
		}
	],
	"meshes":[
		{
			"name":"Mesh_15",
			"primitives":[
				{
					"attributes":{
						"POSITION":0,
						"NORMAL":1,
						"TEXCOORD_0":2
					},
					"indices":3,
					"material":0
				},
				{
					"attributes":{
						"POSITION":4,
						"NORMAL":5,
						"TEXCOORD_0":6
					},
					"indices":7,
					"material":1
				},
				{
					"attributes":{
						"POSITION":8,
						"NORMAL":9,
						"TEXCOORD_0":10
					},
					"indices":11,
					"material":2
				},
				{
					"attributes":{
						"POSITION":12,
						"NORMAL":13,
						"TEXCOORD_0":14
					},
					"indices":15,
					"material":3
				},
				{
					"attributes":{
						"POSITION":16,
						"NORMAL":17,
						"TEXCOORD_0":18
					},
					"indices":19,
					"material":4
				},
				{
					"attributes":{
						"POSITION":20,
						"NORMAL":21,
						"TEXCOORD_0":22
					},
					"indices":23,
					"material":5
				},
				{
					"attributes":{
						"POSITION":24,
						"NORMAL":25,
						"TEXCOORD_0":26
					},
					"indices":27,
					"material":5
				},
				{
					"attributes":{
						"POSITION":28,
						"NORMAL":29,
						"TEXCOORD_0":30
					},
					"indices":31,
					"material":6
				}
			]
		}
	],
	"textures":[
		{
			"sampler":0,
			"source":0
		},
		{
			"sampler":0,
			"source":1
		},
		{
			"sampler":0,
			"source":2
		},
		{
			"sampler":0,
			"source":3
		},
		{
			"sampler":0,
			"source":4
		},
		{
			"sampler":0,
			"source":5
		}
	],
	"images":[
		{
			"mimeType":"image/jpeg",
			"name":"Image_2",
			"uri":"Image_2.jpg"
		},
		{
			"mimeType":"image/jpeg",
			"name":"Image_6",
			"uri":"Image_6.jpg"
		},
		{
			"mimeType":"image/jpeg",
			"name":"Image_10",
			"uri":"Image_10.jpg"
		},
		{
			"mimeType":"image/jpeg",
			"name":"Image_14",
			"uri":"Image_14.jpg"
		},
		{
			"mimeType":"image/jpeg",
			"name":"Image_21",
			"uri":"Image_21.jpg"
		},
		{
			"mimeType":"image/jpeg",
			"name":"Image_25",
			"uri":"Image_25.jpg"
		}
	],
	"accessors":[
		{
			"bufferView":0,
			"componentType":5126,
			"count":13090,
			"max":[
				10.779562950134277,
				11.07374095916748,
				9.162853240966797
			],
			"min":[
				-4.696195602416992,
				-8.726089477539062,
				-7.549091815948486
			],
			"type":"VEC3"
		},
		{
			"bufferView":1,
			"componentType":5126,
			"count":13090,
			"type":"VEC3"
		},
		{
			"bufferView":2,
			"componentType":5126,
			"count":13090,
			"type":"VEC2"
		},
		{
			"bufferView":3,
			"componentType":5123,
			"count":70233,
			"type":"SCALAR"
		},
		{
			"bufferView":4,
			"componentType":5126,
			"count":2354,
			"max":[
				0.433194100856781,
				6.8655829429626465,
				21.69886016845703
			],
			"min":[
				-17.248266220092773,
				-13.85697078704834,
				5.481263160705566
			],
			"type":"VEC3"
		},
		{
			"bufferView":5,
			"componentType":5126,
			"count":2354,
			"type":"VEC3"
		},
		{
			"bufferView":6,
			"componentType":5126,
			"count":2354,
			"type":"VEC2"
		},
		{
			"bufferView":7,
			"componentType":5123,
			"count":7416,
			"type":"SCALAR"
		},
		{
			"bufferView":8,
			"componentType":5126,
			"count":9143,
			"max":[
				14.770001411437988,
				12.625282287597656,
				7.4462432861328125
			],
			"min":[
				-4.833693981170654,
				-9.162039756774902,
				-10.597044944763184
			],
			"type":"VEC3"
		},
		{
			"bufferView":9,
			"componentType":5126,
			"count":9143,
			"type":"VEC3"
		},
		{
			"bufferView":10,
			"componentType":5126,
			"count":9143,
			"type":"VEC2"
		},
		{
			"bufferView":11,
			"componentType":5123,
			"count":25593,
			"type":"SCALAR"
		},
		{
			"bufferView":12,
			"componentType":5126,
			"count":29736,
			"max":[
				12.14991569519043,
				10.07160758972168,
				26.47555160522461
			],
			"min":[
				-21.63113784790039,
				-16.39777183532715,
				-8.09548282623291
			],
			"type":"VEC3"
		},
		{
			"bufferView":13,
			"componentType":5126,
			"count":29736,
			"type":"VEC3"
		},
		{
			"bufferView":14,
			"componentType":5126,
			"count":29736,
			"type":"VEC2"
		},
		{
			"bufferView":15,
			"componentType":5123,
			"count":88371,
			"type":"SCALAR"
		},
		{
			"bufferView":16,
			"componentType":5126,
			"count":20084,
			"max":[
				8.828418731689453,
				12.342092514038086,
				15.726232528686523
			],
			"min":[
				-12.439188003540039,
				-13.77805233001709,
				-3.488992691040039
			],
			"type":"VEC3"
		},
		{
			"bufferView":17,
			"componentType":5126,
			"count":20084,
			"type":"VEC3"
		},
		{
			"bufferView":18,
			"componentType":5126,
			"count":20084,
			"type":"VEC2"
		},
		{
			"bufferView":19,
			"componentType":5123,
			"count":41235,
			"type":"SCALAR"
		},
		{
			"bufferView":20,
			"componentType":5126,
			"count":2997,
			"max":[
				16.397878646850586,
				6.790162086486816,
				4.9158854484558105
			],
			"min":[
				-1.9289226531982422,
				-4.381595611572266,
				-13.454590797424316
			],
			"type":"VEC3"
		},
		{
			"bufferView":21,
			"componentType":5126,
			"count":2997,
			"type":"VEC3"
		},
		{
			"bufferView":22,
			"componentType":5126,
			"count":2997,
			"type":"VEC2"
		},
		{
			"bufferView":23,
			"componentType":5123,
			"count":5712,
			"type":"SCALAR"
		},
		{
			"bufferView":24,
			"componentType":5126,
			"count":16005,
			"max":[
				0.31151676177978516,
				8.351564407348633,
				33.90143966674805
			],
			"min":[
				-28.470672607421875,
				-20.448856353759766,
				6.070013999938965
			],
			"type":"VEC3"
		},
		{
			"bufferView":25,
			"componentType":5126,
			"count":16005,
			"type":"VEC3"
		},
		{
			"bufferView":26,
			"componentType":5126,
			"count":16005,
			"type":"VEC2"
		},
		{
			"bufferView":27,
			"componentType":5123,
			"count":45438,
			"type":"SCALAR"
		},
		{
			"bufferView":28,
			"componentType":5126,
			"count":17346,
			"max":[
				16.161706924438477,
				10.951630592346191,
				7.678032398223877
			],
			"min":[
				-4.618325233459473,
				-5.584149360656738,
				-13.650897979736328
			],
			"type":"VEC3"
		},
		{
			"bufferView":29,
			"componentType":5126,
			"count":17346,
			"type":"VEC3"
		},
		{
			"bufferView":30,
			"componentType":5126,
			"count":17346,
			"type":"VEC2"
		},
		{
			"bufferView":31,
			"componentType":5123,
			"count":36621,
			"type":"SCALAR"
		}
	],
	"bufferViews":[
		{
			"buffer":0,
			"byteLength":157080,
			"byteOffset":0,
			"target":34962
		},
		{
			"buffer":0,
			"byteLength":157080,
			"byteOffset":157080,
			"target":34962
		},
		{
			"buffer":0,
			"byteLength":104720,
			"byteOffset":314160,
			"target":34962
		},
		{
			"buffer":0,
			"byteLength":140466,
			"byteOffset":418880,
			"target":34963
		},
		{
			"buffer":0,
			"byteLength":28248,
			"byteOffset":559348,
			"target":34962
		},
		{
			"buffer":0,
			"byteLength":28248,
			"byteOffset":587596,
			"target":34962
		},
		{
			"buffer":0,
			"byteLength":18832,
			"byteOffset":615844,
			"target":34962
		},
		{
			"buffer":0,
			"byteLength":14832,
			"byteOffset":634676,
			"target":34963
		},
		{
			"buffer":0,
			"byteLength":109716,
			"byteOffset":649508,
			"target":34962
		},
		{
			"buffer":0,
			"byteLength":109716,
			"byteOffset":759224,
			"target":34962
		},
		{
			"buffer":0,
			"byteLength":73144,
			"byteOffset":868940,
			"target":34962
		},
		{
			"buffer":0,
			"byteLength":51186,
			"byteOffset":942084,
			"target":34963
		},
		{
			"buffer":0,
			"byteLength":356832,
			"byteOffset":993272,
			"target":34962
		},
		{
			"buffer":0,
			"byteLength":356832,
			"byteOffset":1350104,
			"target":34962
		},
		{
			"buffer":0,
			"byteLength":237888,
			"byteOffset":1706936,
			"target":34962
		},
		{
			"buffer":0,
			"byteLength":176742,
			"byteOffset":1944824,
			"target":34963
		},
		{
			"buffer":0,
			"byteLength":241008,
			"byteOffset":2121568,
			"target":34962
		},
		{
			"buffer":0,
			"byteLength":241008,
			"byteOffset":2362576,
			"target":34962
		},
		{
			"buffer":0,
			"byteLength":160672,
			"byteOffset":2603584,
			"target":34962
		},
		{
			"buffer":0,
			"byteLength":82470,
			"byteOffset":2764256,
			"target":34963
		},
		{
			"buffer":0,
			"byteLength":35964,
			"byteOffset":2846728,
			"target":34962
		},
		{
			"buffer":0,
			"byteLength":35964,
			"byteOffset":2882692,
			"target":34962
		},
		{
			"buffer":0,
			"byteLength":23976,
			"byteOffset":2918656,
			"target":34962
		},
		{
			"buffer":0,
			"byteLength":11424,
			"byteOffset":2942632,
			"target":34963
		},
		{
			"buffer":0,
			"byteLength":192060,
			"byteOffset":2954056,
			"target":34962
		},
		{
			"buffer":0,
			"byteLength":192060,
			"byteOffset":3146116,
			"target":34962
		},
		{
			"buffer":0,
			"byteLength":128040,
			"byteOffset":3338176,
			"target":34962
		},
		{
			"buffer":0,
			"byteLength":90876,
			"byteOffset":3466216,
			"target":34963
		},
		{
			"buffer":0,
			"byteLength":208152,
			"byteOffset":3557092,
			"target":34962
		},
		{
			"buffer":0,
			"byteLength":208152,
			"byteOffset":3765244,
			"target":34962
		},
		{
			"buffer":0,
			"byteLength":138768,
			"byteOffset":3973396,
			"target":34962
		},
		{
			"buffer":0,
			"byteLength":73242,
			"byteOffset":4112164,
			"target":34963
		}
	],
	"samplers":[
		{
			"magFilter":9729,
			"minFilter":9987
		}
	],
	"buffers":[
		{
			"byteLength":4185408,
			"uri":"61-serie-edit.bin"
		}
	]
}
