{
	"asset":{
		"generator":"Khronos glTF Blender I/O v4.0.44",
		"version":"2.0"
	},
	"scene":0,
	"scenes":[
		{
			"name":"Scene",
			"nodes":[
				0
			]
		}
	],
	"nodes":[
		{
			"mesh":0,
			"name":"61-6441.4057_Rendering_008Druckfeder_2__00494734_oa_4"
		}
	],
	"materials":[
		{
			"name":"material_name_metall_stahl67686A_abgenutzt_7_mtl",
			"pbrMetallicRoughness":{
				"baseColorFactor":[
					1,
					0.6452785134315491,
					0.014745241031050682,
					1
				],
				"metallicFactor":0,
				"roughnessFactor":0
			}
		},
		{
			"alphaMode":"BLEND",
			"emissiveFactor":[
				1,
				1,
				1
			],
			"emissiveTexture":{
				"index":0
			},
			"name":"material_name_kunststoff_gruen9CC289_glanz_SSS_0_mtl",
			"pbrMetallicRoughness":{
				"baseColorFactor":[
					0.6203221678733826,
					0.05987609922885895,
					0.05987609922885895,
					1
				]
			}
		},
		{
			"emissiveFactor":[
				1,
				1,
				1
			],
			"emissiveTexture":{
				"index":1
			},
			"name":"material_name_kunststoff_schwarz141414_rau_1_mtl",
			"pbrMetallicRoughness":{
				"baseColorFactor":[
					0.07666938006877899,
					0.6301510334014893,
					0.011781658977270126,
					1
				]
			}
		},
		{
			"emissiveFactor":[
				1,
				1,
				1
			],
			"emissiveTexture":{
				"index":2
			},
			"name":"material_name_kunststoff_gelbFCBE37_rau_2_mtl",
			"pbrMetallicRoughness":{
				"baseColorFactor":[
					0.03362157195806503,
					0.08201193064451218,
					0.47514966130256653,
					1
				]
			}
		},
		{
			"emissiveFactor":[
				1,
				1,
				1
			],
			"emissiveTexture":{
				"index":3
			},
			"name":"material_name_kunststoff_gelbFCBE37_rau_3_mtl",
			"pbrMetallicRoughness":{
				"baseColorFactor":[
					0.0008192736422643065,
					0.020845120772719383,
					0.6601762771606445,
					1
				]
			}
		},
		{
			"emissiveFactor":[
				1,
				1,
				1
			],
			"emissiveTexture":{
				"index":4
			},
			"name":"material_name_kunststoff_verkehrsrotB81D12_rau_5_mtl",
			"pbrMetallicRoughness":{
				"baseColorFactor":[
					0.8342917561531067,
					0.0004493357555475086,
					0.0004493357555475086,
					1
				]
			}
		},
		{
			"emissiveFactor":[
				1,
				1,
				1
			],
			"emissiveTexture":{
				"index":5
			},
			"name":"material_name_kunststoff_weissDCDCDC_rau_6_mtl",
			"pbrMetallicRoughness":{
				"baseColorFactor":[
					1,
					0.015608880668878555,
					0.013302944600582123,
					1
				]
			}
		}
	],
	"meshes":[
		{
			"name":"Mesh_15",
			"primitives":[
				{
					"attributes":{
						"POSITION":0,
						"NORMAL":1,
						"TEXCOORD_0":2
					},
					"indices":3,
					"material":0
				},
				{
					"attributes":{
						"POSITION":4,
						"NORMAL":5,
						"TEXCOORD_0":6
					},
					"indices":7,
					"material":1
				},
				{
					"attributes":{
						"POSITION":8,
						"NORMAL":9,
						"TEXCOORD_0":10
					},
					"indices":11,
					"material":2
				},
				{
					"attributes":{
						"POSITION":12,
						"NORMAL":13,
						"TEXCOORD_0":14
					},
					"indices":15,
					"material":3
				},
				{
					"attributes":{
						"POSITION":16,
						"NORMAL":17,
						"TEXCOORD_0":18
					},
					"indices":19,
					"material":4
				},
				{
					"attributes":{
						"POSITION":20,
						"NORMAL":21,
						"TEXCOORD_0":22
					},
					"indices":23,
					"material":5
				},
				{
					"attributes":{
						"POSITION":24,
						"NORMAL":25,
						"TEXCOORD_0":26
					},
					"indices":27,
					"material":5
				},
				{
					"attributes":{
						"POSITION":28,
						"NORMAL":29,
						"TEXCOORD_0":30
					},
					"indices":31,
					"material":6
				}
			]
		}
	],
	"textures":[
		{
			"sampler":0,
			"source":0
		},
		{
			"sampler":0,
			"source":1
		},
		{
			"sampler":0,
			"source":2
		},
		{
			"sampler":0,
			"source":3
		},
		{
			"sampler":0,
			"source":4
		},
		{
			"sampler":0,
			"source":5
		}
	],
	"images":[
		{
			"mimeType":"image/jpeg",
			"name":"Image_2",
			"uri":"Image_2.jpg"
		},
		{
			"mimeType":"image/jpeg",
			"name":"Image_6",
			"uri":"Image_6.jpg"
		},
		{
			"mimeType":"image/jpeg",
			"name":"Image_10",
			"uri":"Image_10.jpg"
		},
		{
			"mimeType":"image/jpeg",
			"name":"Image_14",
			"uri":"Image_14.jpg"
		},
		{
			"mimeType":"image/jpeg",
			"name":"Image_21",
			"uri":"Image_21.jpg"
		},
		{
			"mimeType":"image/jpeg",
			"name":"Image_25",
			"uri":"Image_25.jpg"
		}
	],
	"accessors":[
		{
			"bufferView":0,
			"componentType":5126,
			"count":594,
			"max":[
				10.878653526306152,
				11.07374095916748,
				9.162853240966797
			],
			"min":[
				-4.696195602416992,
				-8.726089477539062,
				-7.547874927520752
			],
			"type":"VEC3"
		},
		{
			"bufferView":1,
			"componentType":5126,
			"count":594,
			"type":"VEC3"
		},
		{
			"bufferView":2,
			"componentType":5126,
			"count":594,
			"type":"VEC2"
		},
		{
			"bufferView":3,
			"componentType":5123,
			"count":1233,
			"type":"SCALAR"
		},
		{
			"bufferView":4,
			"componentType":5126,
			"count":295,
			"max":[
				0.4580076336860657,
				6.8732523918151855,
				21.815122604370117
			],
			"min":[
				-17.433752059936523,
				-14.361897468566895,
				5.385753154754639
			],
			"type":"VEC3"
		},
		{
			"bufferView":5,
			"componentType":5126,
			"count":295,
			"type":"VEC3"
		},
		{
			"bufferView":6,
			"componentType":5126,
			"count":295,
			"type":"VEC2"
		},
		{
			"bufferView":7,
			"componentType":5123,
			"count":684,
			"type":"SCALAR"
		},
		{
			"bufferView":8,
			"componentType":5126,
			"count":1136,
			"max":[
				14.770001411437988,
				12.636446952819824,
				7.6267595291137695
			],
			"min":[
				-5.075486660003662,
				-9.696090698242188,
				-10.597044944763184
			],
			"type":"VEC3"
		},
		{
			"bufferView":9,
			"componentType":5126,
			"count":1136,
			"type":"VEC3"
		},
		{
			"bufferView":10,
			"componentType":5126,
			"count":1136,
			"type":"VEC2"
		},
		{
			"bufferView":11,
			"componentType":5123,
			"count":2502,
			"type":"SCALAR"
		},
		{
			"bufferView":12,
			"componentType":5126,
			"count":4847,
			"max":[
				12.17453670501709,
				10.168428421020508,
				26.47853660583496
			],
			"min":[
				-21.803014755249023,
				-16.63324737548828,
				-8.156749725341797
			],
			"type":"VEC3"
		},
		{
			"bufferView":13,
			"componentType":5126,
			"count":4847,
			"type":"VEC3"
		},
		{
			"bufferView":14,
			"componentType":5126,
			"count":4847,
			"type":"VEC2"
		},
		{
			"bufferView":15,
			"componentType":5123,
			"count":9708,
			"type":"SCALAR"
		},
		{
			"bufferView":16,
			"componentType":5126,
			"count":2994,
			"max":[
				9.071982383728027,
				12.361066818237305,
				16.044408798217773
			],
			"min":[
				-12.635688781738281,
				-13.967889785766602,
				-3.507028341293335
			],
			"type":"VEC3"
		},
		{
			"bufferView":17,
			"componentType":5126,
			"count":2994,
			"type":"VEC3"
		},
		{
			"bufferView":18,
			"componentType":5126,
			"count":2994,
			"type":"VEC2"
		},
		{
			"bufferView":19,
			"componentType":5123,
			"count":4497,
			"type":"SCALAR"
		},
		{
			"bufferView":20,
			"componentType":5126,
			"count":669,
			"max":[
				16.223350524902344,
				6.790161609649658,
				4.953425407409668
			],
			"min":[
				-1.9855129718780518,
				-4.391000270843506,
				-13.332489967346191
			],
			"type":"VEC3"
		},
		{
			"bufferView":21,
			"componentType":5126,
			"count":669,
			"type":"VEC3"
		},
		{
			"bufferView":22,
			"componentType":5126,
			"count":669,
			"type":"VEC2"
		},
		{
			"bufferView":23,
			"componentType":5123,
			"count":909,
			"type":"SCALAR"
		},
		{
			"bufferView":24,
			"componentType":5126,
			"count":3460,
			"max":[
				0.31149423122406006,
				8.36607837677002,
				34.03650665283203
			],
			"min":[
				-28.50012969970703,
				-20.4287109375,
				6.008423805236816
			],
			"type":"VEC3"
		},
		{
			"bufferView":25,
			"componentType":5126,
			"count":3460,
			"type":"VEC3"
		},
		{
			"bufferView":26,
			"componentType":5126,
			"count":3460,
			"type":"VEC2"
		},
		{
			"bufferView":27,
			"componentType":5123,
			"count":7389,
			"type":"SCALAR"
		},
		{
			"bufferView":28,
			"componentType":5126,
			"count":3466,
			"max":[
				16.153989791870117,
				10.9417724609375,
				7.676729202270508
			],
			"min":[
				-4.6178765296936035,
				-5.613120079040527,
				-13.643367767333984
			],
			"type":"VEC3"
		},
		{
			"bufferView":29,
			"componentType":5126,
			"count":3466,
			"type":"VEC3"
		},
		{
			"bufferView":30,
			"componentType":5126,
			"count":3466,
			"type":"VEC2"
		},
		{
			"bufferView":31,
			"componentType":5123,
			"count":5139,
			"type":"SCALAR"
		}
	],
	"bufferViews":[
		{
			"buffer":0,
			"byteLength":7128,
			"byteOffset":0,
			"target":34962
		},
		{
			"buffer":0,
			"byteLength":7128,
			"byteOffset":7128,
			"target":34962
		},
		{
			"buffer":0,
			"byteLength":4752,
			"byteOffset":14256,
			"target":34962
		},
		{
			"buffer":0,
			"byteLength":2466,
			"byteOffset":19008,
			"target":34963
		},
		{
			"buffer":0,
			"byteLength":3540,
			"byteOffset":21476,
			"target":34962
		},
		{
			"buffer":0,
			"byteLength":3540,
			"byteOffset":25016,
			"target":34962
		},
		{
			"buffer":0,
			"byteLength":2360,
			"byteOffset":28556,
			"target":34962
		},
		{
			"buffer":0,
			"byteLength":1368,
			"byteOffset":30916,
			"target":34963
		},
		{
			"buffer":0,
			"byteLength":13632,
			"byteOffset":32284,
			"target":34962
		},
		{
			"buffer":0,
			"byteLength":13632,
			"byteOffset":45916,
			"target":34962
		},
		{
			"buffer":0,
			"byteLength":9088,
			"byteOffset":59548,
			"target":34962
		},
		{
			"buffer":0,
			"byteLength":5004,
			"byteOffset":68636,
			"target":34963
		},
		{
			"buffer":0,
			"byteLength":58164,
			"byteOffset":73640,
			"target":34962
		},
		{
			"buffer":0,
			"byteLength":58164,
			"byteOffset":131804,
			"target":34962
		},
		{
			"buffer":0,
			"byteLength":38776,
			"byteOffset":189968,
			"target":34962
		},
		{
			"buffer":0,
			"byteLength":19416,
			"byteOffset":228744,
			"target":34963
		},
		{
			"buffer":0,
			"byteLength":35928,
			"byteOffset":248160,
			"target":34962
		},
		{
			"buffer":0,
			"byteLength":35928,
			"byteOffset":284088,
			"target":34962
		},
		{
			"buffer":0,
			"byteLength":23952,
			"byteOffset":320016,
			"target":34962
		},
		{
			"buffer":0,
			"byteLength":8994,
			"byteOffset":343968,
			"target":34963
		},
		{
			"buffer":0,
			"byteLength":8028,
			"byteOffset":352964,
			"target":34962
		},
		{
			"buffer":0,
			"byteLength":8028,
			"byteOffset":360992,
			"target":34962
		},
		{
			"buffer":0,
			"byteLength":5352,
			"byteOffset":369020,
			"target":34962
		},
		{
			"buffer":0,
			"byteLength":1818,
			"byteOffset":374372,
			"target":34963
		},
		{
			"buffer":0,
			"byteLength":41520,
			"byteOffset":376192,
			"target":34962
		},
		{
			"buffer":0,
			"byteLength":41520,
			"byteOffset":417712,
			"target":34962
		},
		{
			"buffer":0,
			"byteLength":27680,
			"byteOffset":459232,
			"target":34962
		},
		{
			"buffer":0,
			"byteLength":14778,
			"byteOffset":486912,
			"target":34963
		},
		{
			"buffer":0,
			"byteLength":41592,
			"byteOffset":501692,
			"target":34962
		},
		{
			"buffer":0,
			"byteLength":41592,
			"byteOffset":543284,
			"target":34962
		},
		{
			"buffer":0,
			"byteLength":27728,
			"byteOffset":584876,
			"target":34962
		},
		{
			"buffer":0,
			"byteLength":10278,
			"byteOffset":612604,
			"target":34963
		}
	],
	"samplers":[
		{
			"magFilter":9729,
			"minFilter":9987
		}
	],
	"buffers":[
		{
			"byteLength":622884,
			"uri":"61-serie-edit.bin"
		}
	]
}
