{
	"asset":{
		"generator":"Khronos glTF Blender I/O v4.0.44",
		"version":"2.0"
	},
	"scene":0,
	"scenes":[
		{
			"name":"Scene",
			"nodes":[
				0
			]
		}
	],
	"nodes":[
		{
			"mesh":0,
			"name":"61-6441.4057_Rendering_008Druckfeder_2__00494734_oa_4"
		}
	],
	"materials":[
		{
			"name":"material_name_metall_stahl67686A_abgenutzt_7_mtl",
			"pbrMetallicRoughness":{
				"baseColorFactor":[
					1,
					0.6452785134315491,
					0.014745241031050682,
					1
				],
				"metallicFactor":0,
				"roughnessFactor":0
			}
		},
		{
			"alphaMode":"BLEND",
			"emissiveFactor":[
				1,
				1,
				1
			],
			"emissiveTexture":{
				"index":0
			},
			"name":"material_name_kunststoff_gruen9CC289_glanz_SSS_0_mtl",
			"pbrMetallicRoughness":{
				"baseColorFactor":[
					0.6203221678733826,
					0.05987609922885895,
					0.05987609922885895,
					1
				]
			}
		},
		{
			"emissiveFactor":[
				1,
				1,
				1
			],
			"emissiveTexture":{
				"index":1
			},
			"name":"material_name_kunststoff_schwarz141414_rau_1_mtl",
			"pbrMetallicRoughness":{
				"baseColorFactor":[
					0.07666938006877899,
					0.6301510334014893,
					0.011781658977270126,
					1
				]
			}
		},
		{
			"emissiveFactor":[
				1,
				1,
				1
			],
			"emissiveTexture":{
				"index":2
			},
			"name":"material_name_kunststoff_gelbFCBE37_rau_2_mtl",
			"pbrMetallicRoughness":{
				"baseColorFactor":[
					0.03362157195806503,
					0.08201193064451218,
					0.47514966130256653,
					1
				]
			}
		},
		{
			"emissiveFactor":[
				1,
				1,
				1
			],
			"emissiveTexture":{
				"index":3
			},
			"name":"material_name_kunststoff_gelbFCBE37_rau_3_mtl",
			"pbrMetallicRoughness":{
				"baseColorFactor":[
					0.0008192736422643065,
					0.020845120772719383,
					0.6601762771606445,
					1
				]
			}
		},
		{
			"emissiveFactor":[
				1,
				1,
				1
			],
			"emissiveTexture":{
				"index":4
			},
			"name":"material_name_kunststoff_verkehrsrotB81D12_rau_5_mtl",
			"pbrMetallicRoughness":{
				"baseColorFactor":[
					0.8342917561531067,
					0.0004493357555475086,
					0.0004493357555475086,
					1
				]
			}
		},
		{
			"emissiveFactor":[
				1,
				1,
				1
			],
			"emissiveTexture":{
				"index":5
			},
			"name":"material_name_kunststoff_weissDCDCDC_rau_6_mtl",
			"pbrMetallicRoughness":{
				"baseColorFactor":[
					1,
					0.015608880668878555,
					0.013302944600582123,
					1
				]
			}
		}
	],
	"meshes":[
		{
			"name":"Mesh_15",
			"primitives":[
				{
					"attributes":{
						"POSITION":0,
						"NORMAL":1,
						"TEXCOORD_0":2
					},
					"indices":3,
					"material":0
				},
				{
					"attributes":{
						"POSITION":4,
						"NORMAL":5,
						"TEXCOORD_0":6
					},
					"indices":7,
					"material":1
				},
				{
					"attributes":{
						"POSITION":8,
						"NORMAL":9,
						"TEXCOORD_0":10
					},
					"indices":11,
					"material":2
				},
				{
					"attributes":{
						"POSITION":12,
						"NORMAL":13,
						"TEXCOORD_0":14
					},
					"indices":15,
					"material":3
				},
				{
					"attributes":{
						"POSITION":16,
						"NORMAL":17,
						"TEXCOORD_0":18
					},
					"indices":19,
					"material":4
				},
				{
					"attributes":{
						"POSITION":20,
						"NORMAL":21,
						"TEXCOORD_0":22
					},
					"indices":23,
					"material":5
				},
				{
					"attributes":{
						"POSITION":24,
						"NORMAL":25,
						"TEXCOORD_0":26
					},
					"indices":27,
					"material":5
				},
				{
					"attributes":{
						"POSITION":28,
						"NORMAL":29,
						"TEXCOORD_0":30
					},
					"indices":31,
					"material":6
				}
			]
		}
	],
	"textures":[
		{
			"sampler":0,
			"source":0
		},
		{
			"sampler":0,
			"source":1
		},
		{
			"sampler":0,
			"source":2
		},
		{
			"sampler":0,
			"source":3
		},
		{
			"sampler":0,
			"source":4
		},
		{
			"sampler":0,
			"source":5
		}
	],
	"images":[
		{
			"mimeType":"image/jpeg",
			"name":"Image_2",
			"uri":"Image_2.jpg"
		},
		{
			"mimeType":"image/jpeg",
			"name":"Image_6",
			"uri":"Image_6.jpg"
		},
		{
			"mimeType":"image/jpeg",
			"name":"Image_10",
			"uri":"Image_10.jpg"
		},
		{
			"mimeType":"image/jpeg",
			"name":"Image_14",
			"uri":"Image_14.jpg"
		},
		{
			"mimeType":"image/jpeg",
			"name":"Image_21",
			"uri":"Image_21.jpg"
		},
		{
			"mimeType":"image/jpeg",
			"name":"Image_25",
			"uri":"Image_25.jpg"
		}
	],
	"accessors":[
		{
			"bufferView":0,
			"componentType":5126,
			"count":311177,
			"max":[
				11.593749046325684,
				11.071235656738281,
				12.508295059204102
			],
			"min":[
				-2.041898012161255,
				-8.726089477539062,
				-7.879061698913574
			],
			"type":"VEC3"
		},
		{
			"bufferView":1,
			"componentType":5126,
			"count":311177,
			"type":"VEC3"
		},
		{
			"bufferView":2,
			"componentType":5126,
			"count":311177,
			"type":"VEC2"
		},
		{
			"bufferView":3,
			"componentType":5125,
			"count":1835160,
			"type":"SCALAR"
		},
		{
			"bufferView":4,
			"componentType":5126,
			"count":6605,
			"max":[
				-5.948955535888672,
				6.866252899169922,
				19.031288146972656
			],
			"min":[
				-17.835342407226562,
				-13.854841232299805,
				-1.205766201019287
			],
			"type":"VEC3"
		},
		{
			"bufferView":5,
			"componentType":5126,
			"count":6605,
			"type":"VEC3"
		},
		{
			"bufferView":6,
			"componentType":5126,
			"count":6605,
			"type":"VEC2"
		},
		{
			"bufferView":7,
			"componentType":5123,
			"count":31986,
			"type":"SCALAR"
		},
		{
			"bufferView":8,
			"componentType":5126,
			"count":17129,
			"max":[
				14.303515434265137,
				12.625282287597656,
				12.041237831115723
			],
			"min":[
				-0.15742969512939453,
				-9.152384757995605,
				-9.2572660446167
			],
			"type":"VEC3"
		},
		{
			"bufferView":9,
			"componentType":5126,
			"count":17129,
			"type":"VEC3"
		},
		{
			"bufferView":10,
			"componentType":5126,
			"count":17129,
			"type":"VEC2"
		},
		{
			"bufferView":11,
			"componentType":5123,
			"count":49608,
			"type":"SCALAR"
		},
		{
			"bufferView":12,
			"componentType":5126,
			"count":113204,
			"max":[
				11.860560417175293,
				10.07160758972168,
				22.142539978027344
			],
			"min":[
				-23.29496192932129,
				-16.399112701416016,
				-6.661974906921387
			],
			"type":"VEC3"
		},
		{
			"bufferView":13,
			"componentType":5126,
			"count":113204,
			"type":"VEC3"
		},
		{
			"bufferView":14,
			"componentType":5126,
			"count":113204,
			"type":"VEC2"
		},
		{
			"bufferView":15,
			"componentType":5125,
			"count":495240,
			"type":"SCALAR"
		},
		{
			"bufferView":16,
			"componentType":5126,
			"count":47456,
			"max":[
				3.811267852783203,
				12.342092514038086,
				17.568689346313477
			],
			"min":[
				-9.626852035522461,
				-13.779794692993164,
				-7.61204719543457
			],
			"type":"VEC3"
		},
		{
			"bufferView":17,
			"componentType":5126,
			"count":47456,
			"type":"VEC3"
		},
		{
			"bufferView":18,
			"componentType":5126,
			"count":47456,
			"type":"VEC2"
		},
		{
			"bufferView":19,
			"componentType":5123,
			"count":100164,
			"type":"SCALAR"
		},
		{
			"bufferView":20,
			"componentType":5126,
			"count":9682,
			"max":[
				19.138628005981445,
				6.790162086486816,
				7.77669620513916
			],
			"min":[
				0.7429200410842896,
				-4.376764297485352,
				-8.46556282043457
			],
			"type":"VEC3"
		},
		{
			"bufferView":21,
			"componentType":5126,
			"count":9682,
			"type":"VEC3"
		},
		{
			"bufferView":22,
			"componentType":5126,
			"count":9682,
			"type":"VEC2"
		},
		{
			"bufferView":23,
			"componentType":5123,
			"count":22584,
			"type":"SCALAR"
		},
		{
			"bufferView":24,
			"componentType":5126,
			"count":83982,
			"max":[
				-7.619586944580078,
				8.351564407348633,
				27.068618774414062
			],
			"min":[
				-31.654245376586914,
				-20.454328536987305,
				-2.2643823623657227
			],
			"type":"VEC3"
		},
		{
			"bufferView":25,
			"componentType":5126,
			"count":83982,
			"type":"VEC3"
		},
		{
			"bufferView":26,
			"componentType":5126,
			"count":83982,
			"type":"VEC2"
		},
		{
			"bufferView":27,
			"componentType":5125,
			"count":372705,
			"type":"SCALAR"
		},
		{
			"bufferView":28,
			"componentType":5126,
			"count":78398,
			"max":[
				19.126874923706055,
				10.949626922607422,
				8.95567512512207
			],
			"min":[
				-3.4606316089630127,
				-5.584149360656738,
				-8.668115615844727
			],
			"type":"VEC3"
		},
		{
			"bufferView":29,
			"componentType":5126,
			"count":78398,
			"type":"VEC3"
		},
		{
			"bufferView":30,
			"componentType":5126,
			"count":78398,
			"type":"VEC2"
		},
		{
			"bufferView":31,
			"componentType":5125,
			"count":298758,
			"type":"SCALAR"
		}
	],
	"bufferViews":[
		{
			"buffer":0,
			"byteLength":3734124,
			"byteOffset":0,
			"target":34962
		},
		{
			"buffer":0,
			"byteLength":3734124,
			"byteOffset":3734124,
			"target":34962
		},
		{
			"buffer":0,
			"byteLength":2489416,
			"byteOffset":7468248,
			"target":34962
		},
		{
			"buffer":0,
			"byteLength":7340640,
			"byteOffset":9957664,
			"target":34963
		},
		{
			"buffer":0,
			"byteLength":79260,
			"byteOffset":17298304,
			"target":34962
		},
		{
			"buffer":0,
			"byteLength":79260,
			"byteOffset":17377564,
			"target":34962
		},
		{
			"buffer":0,
			"byteLength":52840,
			"byteOffset":17456824,
			"target":34962
		},
		{
			"buffer":0,
			"byteLength":63972,
			"byteOffset":17509664,
			"target":34963
		},
		{
			"buffer":0,
			"byteLength":205548,
			"byteOffset":17573636,
			"target":34962
		},
		{
			"buffer":0,
			"byteLength":205548,
			"byteOffset":17779184,
			"target":34962
		},
		{
			"buffer":0,
			"byteLength":137032,
			"byteOffset":17984732,
			"target":34962
		},
		{
			"buffer":0,
			"byteLength":99216,
			"byteOffset":18121764,
			"target":34963
		},
		{
			"buffer":0,
			"byteLength":1358448,
			"byteOffset":18220980,
			"target":34962
		},
		{
			"buffer":0,
			"byteLength":1358448,
			"byteOffset":19579428,
			"target":34962
		},
		{
			"buffer":0,
			"byteLength":905632,
			"byteOffset":20937876,
			"target":34962
		},
		{
			"buffer":0,
			"byteLength":1980960,
			"byteOffset":21843508,
			"target":34963
		},
		{
			"buffer":0,
			"byteLength":569472,
			"byteOffset":23824468,
			"target":34962
		},
		{
			"buffer":0,
			"byteLength":569472,
			"byteOffset":24393940,
			"target":34962
		},
		{
			"buffer":0,
			"byteLength":379648,
			"byteOffset":24963412,
			"target":34962
		},
		{
			"buffer":0,
			"byteLength":200328,
			"byteOffset":25343060,
			"target":34963
		},
		{
			"buffer":0,
			"byteLength":116184,
			"byteOffset":25543388,
			"target":34962
		},
		{
			"buffer":0,
			"byteLength":116184,
			"byteOffset":25659572,
			"target":34962
		},
		{
			"buffer":0,
			"byteLength":77456,
			"byteOffset":25775756,
			"target":34962
		},
		{
			"buffer":0,
			"byteLength":45168,
			"byteOffset":25853212,
			"target":34963
		},
		{
			"buffer":0,
			"byteLength":1007784,
			"byteOffset":25898380,
			"target":34962
		},
		{
			"buffer":0,
			"byteLength":1007784,
			"byteOffset":26906164,
			"target":34962
		},
		{
			"buffer":0,
			"byteLength":671856,
			"byteOffset":27913948,
			"target":34962
		},
		{
			"buffer":0,
			"byteLength":1490820,
			"byteOffset":28585804,
			"target":34963
		},
		{
			"buffer":0,
			"byteLength":940776,
			"byteOffset":30076624,
			"target":34962
		},
		{
			"buffer":0,
			"byteLength":940776,
			"byteOffset":31017400,
			"target":34962
		},
		{
			"buffer":0,
			"byteLength":627184,
			"byteOffset":31958176,
			"target":34962
		},
		{
			"buffer":0,
			"byteLength":1195032,
			"byteOffset":32585360,
			"target":34963
		}
	],
	"samplers":[
		{
			"magFilter":9729,
			"minFilter":9987
		}
	],
	"buffers":[
		{
			"byteLength":33780392,
			"uri":"61-serie-nice-rotate.bin"
		}
	]
}
